<?xml version="1.0" encoding="iso-8859-1"?>
<!-- Uploaded to: SVG Repo, www.svgrepo.com, Generator: SVG Repo Mixer Tools -->
<svg fill="#000000" version="1.1" id="Layer_1" xmlns="http://www.w3.org/2000/svg" xmlns:xlink="http://www.w3.org/1999/xlink" 
	 viewBox="0 0 460 460" xml:space="preserve">
<g>
	<g>
		<g>
			<path d="M450,175h-33.073c-3.938-13.355-9.247-26.169-15.851-38.251l23.409-23.489c3.896-3.909,3.889-10.235-0.018-14.135
				l-63.701-63.604c-3.907-3.901-10.234-3.899-14.138,0.007l-23.391,23.397c-12.092-6.609-24.901-11.92-38.238-15.854V10
				c0-5.523-4.478-10-10-10h-90c-5.523,0-10,4.477-10,10v33.073c-13.341,3.935-26.15,9.246-38.238,15.854L113.37,35.529
				c-3.903-3.904-10.232-3.907-14.138-0.007l-63.7,63.603c-3.906,3.899-3.913,10.228-0.017,14.137l23.417,23.488
				c-6.61,12.092-11.923,24.904-15.859,38.25H10c-5.523,0-10,4.477-10,10v90c0,5.522,4.477,10,10,10h33.072
				c3.934,13.337,9.244,26.147,15.854,38.238l-23.397,23.391c-1.876,1.875-2.931,4.419-2.931,7.071c0,2.652,1.054,5.196,2.929,7.072
				l63.701,63.701c3.906,3.904,10.236,3.904,14.143,0l23.391-23.392c12.079,6.601,24.889,11.909,38.239,15.845V450
				c0,5.522,4.477,10,10,10h90c5.522,0,10-4.478,10-10v-33.072c13.352-3.936,26.165-9.245,38.251-15.852l23.489,23.409
				c3.908,3.895,10.236,3.888,14.135-0.018l63.603-63.701c3.9-3.906,3.899-10.233-0.005-14.137l-23.391-23.391
				c6.602-12.082,11.91-24.892,15.845-38.239H450c5.522,0,10-4.478,10-10v-90C460,179.477,455.522,175,450,175z M440,265h-30.703
				c-4.58,0-8.575,3.112-9.696,7.554c-4.226,16.748-10.81,32.628-19.567,47.196c-2.366,3.935-1.748,8.977,1.499,12.224
				l21.733,21.733l-49.484,49.56l-21.82-21.746c-3.248-3.236-8.281-3.85-12.211-1.487c-14.568,8.758-30.448,15.342-47.196,19.567
				c-4.441,1.121-7.554,5.116-7.554,9.696V440h-70v-30.703c0-4.58-3.111-8.574-7.552-9.695
				c-16.757-4.23-32.636-10.814-47.198-19.568c-3.936-2.365-8.977-1.748-12.224,1.499l-21.728,21.728l-49.558-49.558l21.735-21.727
				c3.247-3.247,3.866-8.288,1.5-12.225c-8.769-14.587-15.355-30.467-19.577-47.196c-1.121-4.441-5.116-7.554-9.696-7.554H20v-70
				h30.703c4.58,0,8.574-3.111,9.695-7.552c4.227-16.738,10.813-32.617,19.578-47.198c2.363-3.931,1.749-8.965-1.488-12.213
				l-21.754-21.819l49.558-49.482l21.733,21.741c3.249,3.249,8.29,3.865,12.225,1.5c14.581-8.765,30.46-15.352,47.198-19.578
				c4.441-1.121,7.552-5.115,7.552-9.695V20h70v30.703c0,4.58,3.112,8.575,7.554,9.696c16.729,4.222,32.609,10.809,47.196,19.577
				c3.934,2.364,8.978,1.746,12.225-1.5l21.733-21.741l49.559,49.483l-21.746,21.82c-3.237,3.247-3.851,8.281-1.487,12.211
				c8.754,14.563,15.338,30.441,19.568,47.198c1.121,4.441,5.115,7.552,9.695,7.552H440V265z"/>
			<path d="M230,90c-74.439,0-135,60.561-135,135s60.561,135,135,135s135-60.56,135-135S304.44,90,230,90z M230,340
				c-63.411,0-115-51.589-115-115s51.589-115,115-115s115,51.589,115,115S293.411,340,230,340z"/>
			<path d="M245,175h-5v-15h-20v15h-5c-11.028,0-20,8.972-20,20v20c0,11.028,8.972,20,20,20h15h15v20h-30v-10h-20v10
				c0,11.028,8.972,20,20,20h5v15h20v-15h5c11.028,0,20-8.972,20-20v-20c0-11.028-8.972-20-20-20h-15h-15v-20h30v10h20v-10
				C265,183.972,256.028,175,245,175z"/>
			<rect x="295" y="215" width="20" height="20"/>
			<rect x="145" y="215" width="20" height="20"/>
		</g>
	</g>
</g>
</svg>